<svg aria-hidden="true" style="position: absolute; width: 0; height: 0; overflow: hidden;" version="1.1" xmlns="http://www.w3.org/2000/svg" xmlns:xlink="http://www.w3.org/1999/xlink">
<defs>
<symbol id="icon-home-outline" viewBox="0 0 24 24">
<title>home-outline</title>
<path d="M22.262 10.468c-3.39-2.854-9.546-8.171-9.607-8.225l-0.655-0.563-0.652 0.563c-0.062 0.053-6.221 5.368-9.66 8.248-0.438 0.394-0.688 0.945-0.688 1.509 0 1.104 0.896 2 2 2h1v6c0 1.104 0.896 2 2 2h12c1.104 0 2-0.896 2-2v-6h1c1.104 0 2-0.896 2-2 0-0.598-0.275-1.161-0.738-1.532zM14 20h-4v-5h4v5zM18 12l0.002 8c-0.002 0-3.002 0-3.002 0v-6h-6v6h-3v-8h-3.001c2.765-2.312 7.315-6.227 9.001-7.68 1.686 1.453 6.234 5.367 9 7.681 0 0-3 0-3-0.001z"></path>
</symbol>
<symbol id="icon-mail" viewBox="0 0 24 24">
<title>mail</title>
<path d="M19 7h-14c-1.104 0-2 0.896-2 2v9c0 1.104 0.896 2 2 2h14c1.104 0 2-0.896 2-2v-9c0-1.104-0.896-2-2-2zM9.316 14.316l1.602 1.4c0.305 0.266 0.691 0.398 1.082 0.398s0.777-0.133 1.082-0.398l1.602-1.4-0.037 0.037 3.646 3.646h-12.586l3.646-3.646-0.037-0.037zM5 17.293v-6.753l3.602 3.151-3.602 3.602zM15.398 13.691l3.602-3.151v6.75l-3.602-3.599zM19 9v0.21l-6.576 5.754c-0.227 0.198-0.621 0.198-0.848 0l-6.576-5.754v-0.21h14z"></path>
</symbol>
<symbol id="icon-pencil" viewBox="0 0 24 24">
<title>pencil</title>
<path d="M21 6.879l-3.879-3.879c-0.293-0.293-0.678-0.439-1.061-0.439-0.384 0-0.767 0.146-1.060 0.439l-10.939 10.939c-0.293 0.293-0.558 0.727-0.75 1.188-0.192 0.463-0.311 0.959-0.311 1.373v4.5h4.5c0.414 0 0.908-0.119 1.371-0.311s0.896-0.457 1.189-0.75l10.94-10.939c0.293-0.293 0.439-0.678 0.439-1.061 0-0.384-0.146-0.767-0.439-1.060zM5.768 15.061l8.293-8.293 1.232 1.232-8.293 8.293-1.232-1.232zM7.5 19h-1.5l-1-1v-1.5c0-0.077 0.033-0.305 0.158-0.605 0.010-0.020 2.967 2.938 2.967 2.938-0.322 0.134-0.548 0.167-0.625 0.167zM8.939 18.232l-1.232-1.232 8.293-8.293 1.232 1.232-8.293 8.293zM17.939 9.232l-3.172-3.172 1.293-1.293 3.17 3.172-1.291 1.293z"></path>
</symbol>
<symbol id="icon-folder" viewBox="0 0 24 24">
<title>folder</title>
<path d="M18 6h-6c0-1.104-0.896-2-2-2h-4c-1.654 0-3 1.346-3 3v10c0 1.654 1.346 3 3 3h12c1.654 0 3-1.346 3-3v-8c0-1.654-1.346-3-3-3zM6 6h4c0 1.104 0.896 2 2 2h6c0.552 0 1 0.448 1 1h-14v-2c0-0.552 0.448-1 1-1zM18 18h-12c-0.552 0-1-0.448-1-1v-7h14v7c0 0.552-0.448 1-1 1z"></path>
</symbol>
<symbol id="icon-facebook2" viewBox="0 0 32 32">
<title>facebook2</title>
<path d="M29 0h-26c-1.65 0-3 1.35-3 3v26c0 1.65 1.35 3 3 3h13v-14h-4v-4h4v-2c0-3.306 2.694-6 6-6h4v4h-4c-1.1 0-2 0.9-2 2v2h6l-1 4h-5v14h9c1.65 0 3-1.35 3-3v-26c0-1.65-1.35-3-3-3z"></path>
</symbol>
<symbol id="icon-github" viewBox="0 0 32 32">
<title>github</title>
<path d="M16 0.395c-8.836 0-16 7.163-16 16 0 7.069 4.585 13.067 10.942 15.182 0.8 0.148 1.094-0.347 1.094-0.77 0-0.381-0.015-1.642-0.022-2.979-4.452 0.968-5.391-1.888-5.391-1.888-0.728-1.849-1.776-2.341-1.776-2.341-1.452-0.993 0.11-0.973 0.11-0.973 1.606 0.113 2.452 1.649 2.452 1.649 1.427 2.446 3.743 1.739 4.656 1.33 0.143-1.034 0.558-1.74 1.016-2.14-3.554-0.404-7.29-1.777-7.29-7.907 0-1.747 0.625-3.174 1.649-4.295-0.166-0.403-0.714-2.030 0.155-4.234 0 0 1.344-0.43 4.401 1.64 1.276-0.355 2.645-0.532 4.005-0.539 1.359 0.006 2.729 0.184 4.008 0.539 3.054-2.070 4.395-1.64 4.395-1.64 0.871 2.204 0.323 3.831 0.157 4.234 1.026 1.12 1.647 2.548 1.647 4.295 0 6.145-3.743 7.498-7.306 7.895 0.574 0.497 1.085 1.47 1.085 2.963 0 2.141-0.019 3.864-0.019 4.391 0 0.426 0.288 0.925 1.099 0.768 6.354-2.118 10.933-8.113 10.933-15.18 0-8.837-7.164-16-16-16z"></path>
</symbol>
</defs>
</svg>
